<?xml version="1.0" standalone="no"?>
<!DOCTYPE svg PUBLIC "-//W3C//DTD SVG 20010904//EN"
 "http://www.w3.org/TR/2001/REC-SVG-20010904/DTD/svg10.dtd">
<svg version="1.0" xmlns="http://www.w3.org/2000/svg"
 width="1400.000000pt" height="1400.000000pt" viewBox="0 0 1400.000000 1400.000000"
 preserveAspectRatio="xMidYMid meet">
<metadata>
Created by potrace 1.11, written by Peter Selinger 2001-2013
</metadata>
<g transform="translate(0.000000,1400.000000) scale(0.100000,-0.100000)"
fill="#000000" stroke="none">
<path d="M6930 12840 l0 -230 70 0 70 0 0 230 0 230 -70 0 -70 0 0 -230z"/>
<path d="M6371 12783 c10 -87 18 -161 18 -165 1 -5 11 -8 22 -8 24 0 24 -21
-2 223 -11 99 -13 107 -33 107 l-22 0 17 -157z"/>
<path d="M7591 12833 c-26 -244 -26 -223 -2 -223 11 0 21 3 22 8 0 4 8 78 18
165 l17 157 -22 0 c-20 0 -22 -8 -33 -107z"/>
<path d="M5751 12841 c-11 -7 -7 -37 21 -167 31 -142 37 -159 54 -156 10 2 20
5 21 6 1 1 -6 40 -17 86 -10 47 -25 120 -35 163 -17 78 -20 83 -44 68z"/>
<path d="M8205 12773 c-10 -43 -25 -116 -35 -163 -11 -46 -18 -85 -17 -86 1
-1 11 -4 21 -6 17 -3 23 14 54 156 28 130 32 160 21 167 -24 15 -27 10 -44
-68z"/>
<path d="M5151 12681 c-13 -8 -7 -34 34 -163 26 -84 49 -155 51 -156 1 -2 11
-1 22 2 18 6 16 15 -31 166 -28 88 -54 160 -57 160 -3 0 -12 -4 -19 -9z"/>
<path d="M8773 12530 c-47 -151 -49 -160 -31 -166 11 -3 21 -4 22 -2 2 1 25
72 51 156 41 129 47 155 34 163 -7 5 -16 9 -19 9 -3 0 -29 -72 -57 -160z"/>
<path d="M4557 12453 c-8 -13 125 -303 139 -303 29 0 23 28 -38 165 -45 103
-68 145 -80 145 -9 0 -19 -3 -21 -7z"/>
<path d="M9342 12316 c-35 -80 -61 -150 -57 -155 17 -28 37 -1 93 127 72 163
73 166 47 169 -17 3 -30 -19 -83 -141z"/>
<path d="M3962 12258 c-39 -22 -52 -35 -47 -47 15 -39 218 -381 226 -381 15 0
109 54 109 63 0 12 -223 397 -230 396 -3 0 -29 -14 -58 -31z"/>
<path d="M9862 12096 c-62 -107 -112 -199 -112 -203 0 -9 94 -63 109 -63 8 0
211 342 226 381 5 12 -8 25 -49 48 -31 17 -57 31 -59 31 -1 0 -53 -88 -115
-194z"/>
<path d="M3484 11826 c-4 -10 29 -63 89 -145 85 -117 96 -129 112 -117 16 12
10 24 -76 141 -52 71 -100 130 -106 133 -7 2 -16 -3 -19 -12z"/>
<path d="M10478 11823 c-8 -10 -52 -69 -98 -132 -76 -105 -81 -115 -65 -127
16 -12 27 0 112 117 56 77 93 136 89 144 -7 20 -20 19 -38 -2z"/>
<path d="M3001 11436 c-10 -12 6 -35 95 -133 59 -65 111 -119 114 -121 4 -1
12 4 19 12 10 12 -7 35 -95 133 -58 65 -110 119 -114 121 -4 1 -12 -4 -19 -12z"/>
<path d="M10867 11329 c-88 -99 -106 -123 -96 -135 7 -8 15 -13 19 -12 3 2 55
56 114 121 88 97 105 121 95 133 -6 8 -14 14 -18 14 -3 0 -55 -55 -114 -121z"/>
<path d="M2560 10995 c-7 -9 -11 -17 -9 -19 2 -2 58 -51 123 -110 108 -97 121
-106 135 -92 13 14 13 18 1 30 -84 77 -229 206 -233 206 -2 0 -10 -7 -17 -15z"/>
<path d="M11365 10962 c-27 -26 -81 -75 -120 -110 -63 -56 -68 -63 -54 -77 14
-15 27 -6 135 91 65 59 121 108 123 110 5 4 -19 34 -28 34 -3 0 -28 -22 -56
-48z"/>
<path d="M10395 10616 c-65 -29 -105 -101 -105 -191 l0 -55 -55 0 -55 0 0 -45
0 -45 55 0 55 0 0 -280 0 -280 50 0 50 0 0 280 0 280 65 0 65 0 0 45 0 45 -65
0 -65 0 0 50 c0 64 20 103 61 120 27 12 39 11 76 -2 43 -16 44 -16 60 8 8 13
13 31 9 39 -15 40 -139 58 -201 31z"/>
<path d="M3420 10375 l0 -244 39 -12 c36 -11 42 -10 73 15 167 127 400 26 374
-162 -14 -105 -96 -167 -217 -165 -79 1 -139 25 -197 77 l-40 36 -32 -36 -32
-37 39 -39 c21 -21 63 -51 93 -66 50 -25 65 -27 175 -27 105 0 125 3 161 22
65 34 103 71 132 127 22 44 26 63 26 136 0 98 -14 138 -68 198 -51 56 -124 86
-211 86 -72 0 -147 -25 -187 -61 -17 -15 -18 -9 -18 140 l0 157 215 0 215 0 0
50 0 50 -270 0 -270 0 0 -245z"/>
<path d="M5620 10580 c-39 -39 -12 -120 40 -120 27 0 70 43 70 70 0 27 -43 70
-70 70 -11 0 -29 -9 -40 -20z"/>
<path d="M7407 10543 c-4 -3 -7 -44 -7 -90 l0 -83 -50 0 -50 0 0 -45 0 -45 49
0 49 0 4 -237 c4 -263 9 -288 68 -318 33 -17 116 -20 155 -5 33 12 40 33 25
69 -11 29 -12 29 -45 15 -49 -20 -81 -5 -94 43 -6 21 -11 127 -11 235 l0 197
68 3 67 3 0 40 0 40 -67 3 -68 3 0 89 0 90 -43 0 c-24 0 -47 -3 -50 -7z"/>
<path d="M2169 10514 c-16 -19 -15 -20 135 -129 108 -79 120 -85 135 -71 14
15 14 17 -4 30 -11 8 -73 53 -137 100 -100 73 -118 83 -129 70z"/>
<path d="M11700 10443 c-63 -47 -124 -91 -135 -99 -18 -13 -18 -15 -4 -30 15
-14 27 -8 135 71 152 110 153 111 134 129 -13 12 -31 2 -130 -71z"/>
<path d="M4744 10361 c-22 -10 -57 -33 -77 -51 l-37 -32 0 46 0 46 -50 0 -50
0 0 -325 0 -325 50 0 50 0 0 238 0 238 33 31 c63 61 150 83 206 54 46 -25 51
-53 51 -316 l0 -245 50 0 50 0 0 240 0 239 37 36 c35 34 119 69 146 60 7 -2
25 -6 40 -9 16 -4 36 -20 47 -39 18 -30 20 -51 20 -279 l0 -248 51 0 50 0 -3
278 c-3 268 -4 278 -26 313 -29 48 -75 69 -149 69 -68 0 -143 -31 -187 -78
l-29 -31 -21 32 c-37 55 -81 77 -150 77 -38 0 -77 -8 -102 -19z"/>
<path d="M6125 10357 c-27 -13 -65 -36 -82 -51 l-33 -28 0 46 0 46 -50 0 -50
0 0 -325 0 -325 50 0 50 0 0 239 0 239 37 32 c49 43 98 63 158 63 69 0 109
-23 129 -73 13 -33 16 -81 16 -270 l0 -230 50 0 50 0 0 243 c0 252 -6 304 -37
346 -40 53 -69 66 -156 69 -70 2 -90 -1 -132 -21z"/>
<path d="M7943 10364 c-144 -51 -232 -244 -189 -411 27 -108 81 -174 179 -219
54 -24 67 -26 155 -22 79 3 106 9 147 30 28 14 58 35 68 46 18 20 18 21 -4 51
l-22 30 -32 -24 c-146 -112 -364 -41 -392 128 l-6 37 262 0 261 0 0 23 c0 49
-23 143 -45 188 -54 106 -144 159 -265 158 -41 0 -94 -7 -117 -15z m202 -83
c63 -28 103 -81 120 -158 l7 -33 -211 0 -211 0 0 23 c1 57 65 147 125 173 43
19 123 17 170 -5z"/>
<path d="M8621 10368 c-49 -17 -107 -76 -121 -125 -18 -60 -6 -110 39 -154 37
-37 54 -44 234 -94 102 -29 137 -79 104 -145 -41 -83 -239 -77 -333 11 l-22
20 -21 -34 c-11 -19 -21 -38 -21 -43 0 -14 90 -71 134 -84 23 -8 76 -11 135
-8 83 3 103 7 142 30 75 44 108 118 90 200 -18 81 -82 123 -259 169 -45 12
-93 30 -107 41 -34 27 -33 69 4 110 26 29 35 33 98 36 55 3 80 0 121 -18 28
-12 58 -30 68 -41 17 -19 18 -18 42 17 l25 37 -24 19 c-62 49 -102 62 -199 64
-52 2 -110 -2 -129 -8z"/>
<path d="M9632 10349 c-70 -35 -104 -71 -141 -149 -23 -48 -26 -68 -26 -155 0
-82 4 -109 22 -148 37 -79 78 -124 148 -158 59 -29 69 -31 152 -27 103 4 163
29 220 91 63 70 78 117 78 242 0 100 -2 115 -28 167 -34 69 -101 131 -164 152
-27 9 -80 16 -123 16 -66 0 -86 -4 -138 -31z m235 -76 c47 -22 90 -75 108
-135 67 -227 -112 -413 -302 -315 -67 35 -108 119 -108 222 0 39 6 86 14 105
51 126 170 177 288 123z"/>
<path d="M5610 10045 l0 -325 50 0 50 0 0 325 0 325 -50 0 -50 0 0 -325z"/>
<path d="M6652 10098 c3 -254 4 -275 24 -308 32 -56 85 -80 174 -80 81 0 132
17 195 66 l35 26 0 -41 0 -41 50 0 50 0 0 325 0 325 -50 0 -50 0 0 -244 0
-244 -32 -28 c-48 -39 -94 -56 -159 -56 -67 0 -93 12 -119 55 -18 29 -20 52
-20 275 l0 242 -51 0 -50 0 3 -272z"/>
<path d="M1740 10034 c-17 -31 -30 -57 -28 -59 10 -9 388 -225 395 -225 15 0
68 109 58 119 -15 13 -376 221 -385 221 -5 0 -22 -25 -40 -56z"/>
<path d="M12023 9982 c-100 -59 -185 -111 -189 -115 -9 -8 46 -117 59 -117 7
0 385 216 395 225 7 7 -61 115 -71 114 -7 -1 -94 -49 -194 -107z"/>
<path d="M1543 9435 c-3 -9 -2 -20 3 -25 18 -18 284 -131 294 -125 26 16 1 37
-107 85 -194 87 -183 83 -190 65z"/>
<path d="M12297 9383 c-135 -60 -164 -81 -137 -98 13 -8 291 115 297 133 14
35 -21 27 -160 -35z"/>
<path d="M1316 8845 c-3 -9 0 -18 7 -20 6 -3 78 -27 159 -54 141 -47 147 -48
154 -29 3 11 4 21 2 23 -6 5 -292 95 -304 95 -7 0 -15 -7 -18 -15z"/>
<path d="M12505 8813 c-77 -25 -142 -46 -143 -48 -2 -2 -1 -12 2 -23 7 -19 13
-18 154 29 81 27 153 51 159 54 18 6 4 35 -16 34 -9 0 -79 -21 -156 -46z"/>
<path d="M1157 8240 c-4 -16 3 -21 52 -31 31 -6 103 -22 161 -34 58 -13 106
-22 107 -22 0 1 3 11 5 22 3 17 -12 23 -147 52 -178 39 -171 38 -178 13z"/>
<path d="M12660 8226 c-131 -28 -145 -33 -142 -51 2 -11 5 -21 5 -22 1 0 49 9
107 22 58 12 130 28 161 34 49 10 56 15 52 31 -7 25 -8 25 -183 -14z"/>
<path d="M3070 7021 l0 -1171 160 0 160 0 0 470 0 470 188 0 187 0 255 -470
255 -470 178 0 178 0 -29 53 c-211 369 -521 921 -519 922 1 1 40 14 87 28 193
59 334 198 397 391 21 66 27 106 30 211 6 159 -10 245 -67 364 -55 113 -170
231 -280 284 -159 78 -177 80 -707 85 l-473 4 0 -1171z m953 890 c80 -31 169
-116 206 -195 113 -237 31 -536 -173 -636 -89 -44 -142 -50 -417 -50 l-249 0
0 456 0 455 288 -3 c272 -3 290 -5 345 -27z"/>
<path d="M10230 7770 l0 -230 -125 0 -125 0 0 -110 0 -110 125 0 125 0 0 -557
c0 -307 4 -595 10 -641 16 -143 71 -226 182 -278 59 -27 70 -29 193 -29 143 1
213 18 281 70 l33 25 -39 81 c-21 44 -40 85 -42 91 -3 7 -23 0 -51 -16 -97
-57 -208 -42 -252 34 -19 34 -20 53 -23 628 l-3 592 161 0 160 0 0 110 0 110
-160 0 -160 0 0 230 0 230 -145 0 -145 0 0 -230z"/>
<path d="M1060 7627 c0 -23 4 -24 118 -36 64 -7 138 -15 165 -18 43 -5 47 -4
47 15 0 24 -11 27 -170 42 -63 6 -125 13 -137 16 -19 3 -23 0 -23 -19z"/>
<path d="M12770 7629 c-85 -10 -156 -18 -157 -18 -2 -1 -3 -11 -3 -22 0 -20 4
-21 48 -16 26 3 100 11 165 18 113 12 117 13 117 36 0 12 -3 22 -7 22 -5 -1
-78 -10 -163 -20z"/>
<path d="M5490 7564 c-288 -61 -492 -270 -577 -590 -23 -87 -26 -119 -27 -269
-1 -133 3 -187 18 -250 75 -324 265 -532 561 -617 68 -19 104 -23 235 -23 174
0 254 17 385 80 70 33 180 111 222 157 l23 24 -74 73 -74 74 -57 -51 c-231
-205 -590 -204 -784 3 -33 36 -75 92 -91 125 -36 72 -68 186 -72 260 l-3 55
619 3 619 2 -6 143 c-6 166 -29 269 -88 395 -130 280 -357 424 -666 421 -54 0
-127 -7 -163 -15z m312 -215 c154 -52 258 -178 308 -373 11 -44 20 -101 20
-128 l0 -48 -481 0 -481 0 7 53 c26 210 134 400 265 467 73 38 120 49 213 49
64 1 104 -5 149 -20z"/>
<path d="M7209 7565 c-94 -18 -219 -57 -305 -96 -58 -25 -65 -32 -61 -52 3
-12 11 -66 18 -119 7 -54 16 -98 21 -98 4 0 29 15 55 34 65 46 115 70 203 97
107 34 298 34 383 0 89 -35 137 -77 177 -155 32 -64 35 -76 38 -177 l4 -109
-182 0 c-365 0 -596 -65 -743 -208 -97 -94 -137 -197 -137 -351 0 -166 40
-269 140 -365 106 -101 232 -146 415 -146 192 0 338 53 452 164 l62 61 11 -70
c6 -38 13 -82 16 -97 l6 -28 145 0 146 0 -8 43 c-4 23 -10 308 -14 632 -7 555
-9 595 -29 667 -55 202 -160 306 -359 359 -103 28 -344 35 -454 14z m531 -989
c0 -281 -67 -429 -229 -505 -51 -24 -66 -26 -186 -26 -146 0 -192 13 -253 75
-63 62 -77 103 -77 220 0 95 3 110 27 156 60 114 173 170 393 197 17 2 96 5
178 6 l147 1 0 -124z"/>
<path d="M9086 7563 c-179 -38 -336 -141 -442 -290 -274 -382 -207 -1029 134
-1299 70 -55 195 -118 282 -141 92 -25 338 -24 430 1 89 24 204 86 270 145
l55 48 -34 39 c-19 21 -54 61 -78 87 l-44 48 -53 -48 c-68 -63 -147 -100 -240
-115 -266 -41 -486 122 -568 421 -18 63 -22 104 -21 241 0 150 2 173 27 253
32 106 50 143 109 223 158 215 498 247 691 64 l54 -51 73 81 c41 45 75 85 77
90 6 17 -124 114 -203 151 -44 21 -115 45 -157 54 -96 19 -270 18 -362 -2z"/>
<path d="M930 7000 l0 -70 230 0 230 0 0 70 0 70 -230 0 -230 0 0 -70z"/>
<path d="M12610 7000 l0 -70 230 0 230 0 0 70 0 70 -230 0 -230 0 0 -70z"/>
<path d="M1220 6415 c-58 -7 -117 -14 -132 -14 -22 -1 -28 -6 -28 -24 l0 -23
163 17 c89 10 163 18 165 18 1 1 2 10 2 21 0 23 -11 24 -170 5z"/>
<path d="M12610 6410 c0 -11 1 -20 3 -21 1 0 75 -8 165 -18 l162 -17 0 23 c0
15 -6 23 -17 23 -10 0 -76 7 -148 15 -167 19 -165 19 -165 -5z"/>
<path d="M1380 5829 c-47 -11 -117 -26 -156 -35 -62 -13 -71 -18 -67 -35 3
-10 9 -19 14 -19 11 0 290 59 306 65 11 4 6 46 -6 44 -3 0 -44 -9 -91 -20z"/>
<path d="M12517 5830 c-3 -12 0 -23 6 -25 16 -6 295 -65 306 -65 5 0 11 9 14
20 3 11 4 20 2 20 -6 0 -288 61 -306 66 -11 3 -18 -3 -22 -16z"/>
<path d="M1475 5228 c-82 -27 -153 -52 -157 -56 -4 -4 -3 -14 2 -21 7 -12 34
-7 164 34 86 27 156 53 156 59 -1 33 -20 31 -165 -16z"/>
<path d="M12366 5263 c-4 -8 -6 -18 -6 -22 0 -4 70 -29 156 -56 130 -41 157
-46 164 -34 5 7 6 17 2 21 -4 4 -75 29 -159 56 -124 40 -153 47 -157 35z"/>
<path d="M5915 4801 c-141 -36 -221 -200 -185 -376 16 -79 40 -123 89 -168 98
-88 271 -68 343 40 44 66 53 102 53 208 0 110 -20 172 -73 228 -54 57 -154 87
-227 68z m161 -104 c91 -99 82 -318 -16 -400 -79 -67 -190 -32 -234 73 -25 61
-30 149 -12 218 29 116 74 155 170 149 53 -3 62 -7 92 -40z"/>
<path d="M7052 4791 c-66 -23 -113 -68 -144 -135 -19 -43 -23 -67 -23 -156 1
-94 3 -110 27 -156 15 -29 46 -67 68 -87 100 -86 256 -70 330 33 l22 30 -33
14 c-31 13 -33 12 -61 -20 -60 -68 -156 -68 -217 1 -91 104 -75 333 29 403 24
16 48 22 86 22 48 0 58 -4 94 -37 39 -35 42 -36 70 -22 l30 14 -26 33 c-55 69
-160 96 -252 63z"/>
<path d="M8043 4801 c-79 -20 -133 -80 -133 -149 0 -72 38 -111 168 -173 85
-41 105 -55 119 -83 33 -71 -20 -131 -115 -130 -53 0 -83 10 -135 47 -15 10
-21 8 -37 -13 l-20 -25 25 -22 c31 -27 114 -53 169 -53 129 0 220 86 201 188
-12 65 -48 100 -161 154 -58 28 -111 60 -119 71 -23 32 -18 71 11 101 23 22
36 26 83 26 38 0 69 -7 95 -21 39 -20 39 -21 59 -1 24 25 16 39 -37 62 -49 22
-129 32 -173 21z"/>
<path d="M5260 4506 l0 -296 40 0 40 0 0 120 0 120 94 0 c105 0 140 15 183 79
49 72 21 196 -54 242 -33 21 -53 24 -170 27 l-133 4 0 -296z m234 220 c18 -8
41 -24 50 -37 32 -46 12 -144 -33 -169 -11 -5 -54 -10 -95 -10 l-76 0 0 115 0
115 60 0 c33 0 76 -6 94 -14z"/>
<path d="M6340 4506 l0 -296 108 0 c174 0 248 34 298 137 57 116 41 278 -36
365 -57 65 -101 80 -247 86 l-123 4 0 -296z m225 223 c54 -15 109 -74 124
-132 26 -105 4 -220 -52 -275 -40 -38 -81 -52 -159 -52 l-58 0 0 235 0 235 53
0 c28 0 70 -5 92 -11z"/>
<path d="M7565 4789 c-6 -9 -195 -569 -195 -577 0 -2 19 -2 42 0 l42 3 20 63
20 63 120 -3 120 -3 18 -62 19 -63 44 0 44 0 -68 198 c-37 108 -83 241 -100
295 l-33 97 -43 0 c-24 0 -47 -5 -50 -11z m145 -381 c0 -9 -184 -11 -192 -3
-4 5 66 239 88 295 5 12 103 -265 104 -292z"/>
<path d="M8350 4770 l0 -30 75 0 75 0 0 -265 0 -265 40 0 40 0 0 265 0 265 80
0 80 0 0 30 0 30 -195 0 -195 0 0 -30z"/>
<path d="M1677 4657 c-115 -52 -137 -65 -134 -82 3 -26 6 -25 170 47 101 45
137 66 135 77 -2 9 -10 17 -18 18 -8 1 -77 -26 -153 -60z"/>
<path d="M12153 4705 c-3 -9 -4 -18 -1 -20 2 -2 69 -33 149 -69 135 -60 145
-63 153 -45 5 11 7 21 5 22 -10 8 -285 127 -292 127 -4 0 -10 -7 -14 -15z"/>
<path d="M1905 4139 c-104 -61 -192 -112 -193 -114 -2 -2 11 -29 29 -59 24
-39 38 -55 49 -51 38 15 380 218 380 226 0 17 -55 109 -65 109 -5 0 -95 -50
-200 -111z"/>
<path d="M11858 4200 c-16 -28 -28 -54 -28 -59 0 -8 342 -211 380 -226 11 -4
25 12 49 51 18 30 31 57 29 59 -10 10 -387 225 -394 225 -5 0 -21 -23 -36 -50z"/>
<path d="M2298 3612 c-146 -108 -145 -107 -129 -126 11 -13 32 -1 144 81 73
53 134 98 136 99 5 5 -20 34 -28 33 -3 0 -59 -40 -123 -87z"/>
<path d="M11560 3685 c-7 -9 -11 -17 -9 -19 2 -1 63 -46 136 -99 113 -82 133
-94 144 -81 10 12 9 18 -2 29 -16 15 -248 185 -253 185 -2 0 -9 -7 -16 -15z"/>
<path d="M2674 3134 c-66 -59 -120 -110 -122 -114 -1 -4 4 -12 12 -19 12 -10
35 7 133 95 65 58 119 110 121 114 1 4 -4 12 -11 19 -12 9 -37 -9 -133 -95z"/>
<path d="M11190 3225 c-8 -9 -9 -19 -4 -24 221 -200 236 -212 250 -200 8 7 13
15 12 18 -3 7 -200 186 -229 209 -13 10 -19 9 -29 -3z"/>
<path d="M3097 2699 c-88 -99 -106 -123 -96 -135 7 -8 15 -13 19 -12 4 2 56
56 114 121 87 96 105 121 95 133 -6 8 -14 14 -18 14 -3 0 -55 -55 -114 -121z"/>
<path d="M10771 2806 c-10 -12 7 -35 95 -133 58 -65 110 -119 114 -121 4 -1
12 4 19 12 10 12 -7 35 -95 133 -58 65 -110 119 -114 121 -4 1 -12 -4 -19 -12z"/>
<path d="M3568 2315 c-79 -110 -94 -136 -83 -145 8 -7 18 -9 24 -6 5 4 51 63
101 132 74 101 89 128 79 140 -6 8 -14 14 -18 14 -3 -1 -50 -61 -103 -135z"/>
<path d="M10311 2436 c-10 -12 5 -39 79 -140 50 -69 96 -128 101 -132 6 -3 16
-1 24 6 11 9 -4 35 -83 145 -53 74 -100 134 -103 135 -4 0 -12 -6 -18 -14z"/>
<path d="M4021 1979 c-61 -106 -111 -195 -111 -198 0 -8 110 -74 115 -69 10 9
225 388 225 395 0 9 -94 63 -109 63 -5 0 -59 -86 -120 -191z"/>
<path d="M9798 2142 c-26 -15 -48 -31 -48 -35 0 -7 215 -386 225 -395 5 -5
115 61 115 69 0 17 -224 389 -233 388 -7 0 -33 -12 -59 -27z"/>
<path d="M4618 1703 c-62 -139 -65 -149 -47 -157 11 -5 21 -7 22 -5 18 24 127
290 122 298 -17 28 -37 0 -97 -136z"/>
<path d="M9285 1839 c-5 -8 104 -274 122 -298 1 -2 11 0 22 5 18 8 15 18 -47
157 -60 136 -80 164 -97 136z"/>
<path d="M5187 1491 c-26 -83 -47 -155 -47 -160 0 -6 9 -11 19 -11 17 0 28 25
69 153 46 147 49 166 17 167 -6 0 -32 -67 -58 -149z"/>
<path d="M8734 1632 c-7 -5 6 -58 38 -159 41 -128 52 -153 69 -153 10 0 19 5
19 11 0 27 -96 309 -105 309 -5 0 -15 -4 -21 -8z"/>
<path d="M5805 1477 c-6 -18 -65 -297 -65 -306 0 -5 9 -11 19 -14 22 -5 19
-14 56 163 14 69 28 132 31 141 5 19 -35 34 -41 16z"/>
<path d="M8167 1482 c-11 -2 -16 -10 -13 -20 3 -9 17 -73 31 -142 37 -177 34
-168 56 -163 10 3 19 8 19 12 0 17 -64 307 -69 312 -3 3 -14 4 -24 1z"/>
<path d="M6385 1348 c-11 -84 -25 -224 -25 -255 0 -26 4 -33 19 -33 16 0 20
13 30 108 26 242 26 222 3 222 -17 0 -22 -8 -27 -42z"/>
<path d="M6930 1160 l0 -230 70 0 70 0 0 230 0 230 -70 0 -70 0 0 -230z"/>
<path d="M7573 1333 c29 -274 29 -273 48 -273 22 0 24 21 9 155 -18 172 -19
175 -42 175 -19 0 -20 -4 -15 -57z"/>
</g>
</svg>
